<?xml version="1.0" encoding="UTF-8"?>
<svg xmlns="http://www.w3.org/2000/svg" xmlns:xlink="http://www.w3.org/1999/xlink" width="256px" height="256px" viewBox="0 0 256 256" version="1.1">
<g id="surface1">
<path style=" stroke:none;fill-rule:nonzero;fill:rgb(25.490196%,40%,70.588235%);fill-opacity:1;" d="M 25 0 L 231 0 C 244.808594 0 256 11.191406 256 25 L 256 231 C 256 244.808594 244.808594 256 231 256 L 25 256 C 11.191406 256 0 244.808594 0 231 L 0 25 C 0 11.191406 11.191406 0 25 0 Z M 25 0 "/>
<path style=" stroke:none;fill-rule:nonzero;fill:rgb(100%,100%,100%);fill-opacity:1;" d="M 26.433594 217.5 L 32.589844 180.410156 L 47.222656 180.410156 C 50.023438 180.410156 52.324219 180.945312 54.125 182.019531 C 55.933594 183.082031 57.203125 184.5625 57.925781 186.457031 C 58.664062 188.339844 58.832031 190.515625 58.433594 192.976562 C 58.023438 195.453125 57.128906 197.632812 55.753906 199.515625 C 54.390625 201.386719 52.613281 202.847656 50.429688 203.898438 C 48.242188 204.949219 45.71875 205.472656 42.859375 205.472656 L 33.53125 205.472656 L 34.5625 199.191406 L 42.625 199.191406 C 44.144531 199.191406 45.441406 198.929688 46.515625 198.410156 C 47.605469 197.878906 48.46875 197.148438 49.105469 196.21875 C 49.746094 195.277344 50.164062 194.199219 50.355469 192.976562 C 50.5625 191.734375 50.496094 190.652344 50.15625 189.734375 C 49.820312 188.820312 49.199219 188.105469 48.292969 187.597656 C 47.398438 187.078125 46.199219 186.820312 44.6875 186.820312 L 39.398438 186.820312 L 34.273438 217.5 Z M 69.738281 201.417969 L 67.058594 217.5 L 59.363281 217.5 L 65.519531 180.410156 L 73 180.410156 L 70.679688 194.589844 L 70.988281 194.589844 C 71.882812 192.949219 73.109375 191.660156 74.664062 190.730469 C 76.222656 189.789062 78.066406 189.320312 80.191406 189.320312 C 82.121094 189.320312 83.734375 189.742188 85.027344 190.585938 C 86.328125 191.421875 87.253906 192.621094 87.796875 194.191406 C 88.339844 195.75 88.429688 197.613281 88.066406 199.789062 L 85.097656 217.5 L 77.402344 217.5 L 80.117188 201.164062 C 80.394531 199.449219 80.171875 198.117188 79.445312 197.160156 C 78.734375 196.207031 77.601562 195.730469 76.042969 195.730469 C 74.992188 195.730469 74.027344 195.953125 73.144531 196.402344 C 72.261719 196.847656 71.519531 197.5 70.917969 198.355469 C 70.324219 199.203125 69.933594 200.222656 69.738281 201.417969 Z M 89.449219 227.933594 L 95.859375 189.683594 L 103.464844 189.683594 L 102.6875 194.355469 L 103.03125 194.355469 C 103.492188 193.605469 104.101562 192.84375 104.859375 192.074219 C 105.632812 191.289062 106.59375 190.636719 107.742188 190.117188 C 108.886719 189.585938 110.234375 189.320312 111.78125 189.320312 C 113.820312 189.320312 115.601562 189.851562 117.121094 190.914062 C 118.644531 191.964844 119.742188 193.550781 120.417969 195.675781 C 121.105469 197.789062 121.183594 200.441406 120.652344 203.628906 C 120.148438 206.730469 119.210938 209.351562 117.847656 211.488281 C 116.496094 213.613281 114.871094 215.222656 112.976562 216.324219 C 111.089844 217.410156 109.09375 217.953125 106.980469 217.953125 C 105.484375 217.953125 104.25 217.707031 103.285156 217.210938 C 102.332031 216.714844 101.589844 216.09375 101.058594 215.34375 C 100.527344 214.585938 100.152344 213.816406 99.933594 213.042969 L 99.644531 213.042969 L 97.183594 227.933594 Z M 101.09375 203.589844 C 100.828125 205.246094 100.816406 206.6875 101.058594 207.917969 C 101.3125 209.152344 101.820312 210.109375 102.578125 210.800781 C 103.339844 211.476562 104.34375 211.8125 105.585938 211.8125 C 106.839844 211.8125 107.957031 211.46875 108.9375 210.78125 C 109.914062 210.082031 110.730469 209.113281 111.382812 207.882812 C 112.03125 206.640625 112.496094 205.210938 112.777344 203.589844 C 113.027344 201.984375 113.035156 200.574219 112.792969 199.351562 C 112.550781 198.132812 112.058594 197.179688 111.308594 196.492188 C 110.558594 195.804688 109.546875 195.460938 108.265625 195.460938 C 107.023438 195.460938 105.90625 195.789062 104.914062 196.457031 C 103.9375 197.121094 103.121094 198.0625 102.46875 199.28125 C 101.820312 200.5 101.359375 201.9375 101.09375 203.589844 Z M 149.40625 180.410156 L 143.246094 217.5 L 135.40625 217.5 L 141.5625 180.410156 Z M 159.984375 201.417969 L 157.304688 217.5 L 149.609375 217.5 L 154.246094 189.683594 L 161.578125 189.683594 L 160.78125 194.589844 L 161.089844 194.589844 C 161.972656 192.960938 163.214844 191.675781 164.820312 190.730469 C 166.441406 189.789062 168.28125 189.320312 170.34375 189.320312 C 172.277344 189.320312 173.890625 189.742188 175.179688 190.585938 C 176.484375 191.433594 177.402344 192.632812 177.933594 194.191406 C 178.476562 195.75 178.566406 197.613281 178.207031 199.789062 L 175.234375 217.5 L 167.519531 217.5 L 170.253906 201.164062 C 170.53125 199.460938 170.316406 198.132812 169.601562 197.179688 C 168.902344 196.214844 167.773438 195.730469 166.214844 195.730469 C 165.175781 195.730469 164.222656 195.953125 163.355469 196.402344 C 162.484375 196.847656 161.753906 197.5 161.164062 198.355469 C 160.582031 199.203125 160.191406 200.222656 159.984375 201.417969 Z M 200.894531 189.683594 L 199.933594 195.476562 L 182.765625 195.476562 L 183.722656 189.683594 Z M 183 217.5 L 187.980469 187.671875 C 188.304688 185.65625 188.96875 183.984375 189.972656 182.65625 C 190.988281 181.328125 192.238281 180.332031 193.722656 179.667969 C 195.21875 179.003906 196.835938 178.671875 198.574219 178.671875 C 199.757812 178.671875 200.828125 178.761719 201.78125 178.941406 C 202.746094 179.121094 203.449219 179.285156 203.882812 179.429688 L 201.582031 185.226562 C 201.292969 185.128906 200.9375 185.039062 200.511719 184.953125 C 200.089844 184.871094 199.644531 184.828125 199.171875 184.828125 C 198.050781 184.828125 197.222656 185.09375 196.691406 185.625 C 196.171875 186.144531 195.824219 186.875 195.640625 187.816406 L 190.699219 217.5 Z M 212.5625 218.042969 C 209.722656 218.042969 207.375 217.441406 205.515625 216.230469 C 203.65625 215.011719 202.347656 213.324219 201.585938 211.160156 C 200.839844 208.988281 200.699219 206.457031 201.171875 203.574219 C 201.628906 200.722656 202.582031 198.230469 204.03125 196.09375 C 205.480469 193.957031 207.320312 192.296875 209.554688 191.113281 C 211.789062 189.917969 214.304688 189.320312 217.109375 189.320312 C 219.933594 189.320312 222.273438 189.929688 224.132812 191.148438 C 225.992188 192.355469 227.304688 194.046875 228.066406 196.21875 C 228.824219 198.394531 228.96875 200.921875 228.5 203.808594 C 228.027344 206.644531 227.0625 209.132812 225.601562 211.269531 C 224.140625 213.40625 222.300781 215.074219 220.078125 216.269531 C 217.855469 217.453125 215.351562 218.042969 212.5625 218.042969 Z M 213.320312 212.066406 C 214.625 212.066406 215.78125 211.699219 216.78125 210.960938 C 217.796875 210.214844 218.632812 209.199219 219.300781 207.917969 C 219.976562 206.628906 220.445312 205.167969 220.710938 203.535156 C 220.976562 201.929688 220.996094 200.507812 220.765625 199.261719 C 220.535156 198.007812 220.054688 197.015625 219.316406 196.292969 C 218.59375 195.566406 217.597656 195.207031 216.328125 195.207031 C 215.023438 195.207031 213.867188 195.578125 212.851562 196.328125 C 211.835938 197.066406 210.996094 198.078125 210.335938 199.371094 C 209.671875 200.664062 209.203125 202.128906 208.941406 203.773438 C 208.6875 205.367188 208.667969 206.789062 208.886719 208.046875 C 209.101562 209.289062 209.578125 210.273438 210.316406 210.996094 C 211.050781 211.710938 212.054688 212.066406 213.320312 212.066406 Z M 213.320312 212.066406 "/>
<path style=" stroke:none;fill-rule:nonzero;fill:rgb(100%,100%,100%);fill-opacity:1;" d="M 103.066406 128.300781 C 102.367188 123.742188 100.449219 120.039062 95.785156 118.25 C 93.960938 117.550781 92.378906 116.277344 90.582031 115.472656 C 88.539062 114.558594 86.460938 113.683594 84.304688 113.117188 C 82.671875 112.679688 81.152344 113.414062 80.183594 114.84375 C 79.265625 116.191406 79.929688 117.457031 80.699219 118.582031 C 81.5625 119.847656 82.523438 121.054688 83.492188 122.242188 C 85.097656 124.214844 86.800781 126.109375 88.363281 128.109375 C 89.855469 130.019531 91.132812 132.140625 90.914062 134.671875 C 90.433594 140.226562 87.917969 144.828125 83.867188 148.570312 C 83.421875 148.972656 82.636719 149.261719 82.0625 149.210938 C 79.476562 148.929688 77.128906 147.953125 75.234375 146.144531 C 73.058594 144.074219 73.390625 141.640625 75.992188 140.128906 C 76.613281 139.773438 77.257812 139.441406 77.828125 139.003906 C 79.414062 137.808594 79.949219 135.765625 79.085938 133.992188 C 78.671875 133.136719 78.210938 132.210938 77.53125 131.589844 C 74.203125 128.5625 70.9375 125.433594 67.375 122.675781 C 58.742188 115.972656 54.304688 107.101562 53.625 96.363281 C 52.855469 84.4375 55.625 73.304688 61.917969 63.117188 C 64.300781 59.25 67.078125 55.566406 71.339844 53.652344 C 74.238281 52.351562 77.414062 51.617188 80.515625 50.808594 C 89.046875 48.5625 97.652344 46.878906 106.53125 48.378906 C 114.179688 49.664062 119.777344 53.601562 122.34375 61.117188 C 124.027344 66.03125 124.429688 71.113281 123.90625 76.316406 C 122.875 86.542969 115.324219 95.683594 105.476562 98.386719 C 101.207031 99.558594 98.875 98.902344 96.308594 95.351562 C 94.46875 92.792969 92.9375 90.007812 91.289062 87.308594 C 91.042969 86.90625 90.871094 86.445312 90.660156 86.015625 C 90.460938 85.589844 90.242188 85.179688 90.03125 84.75 C 90.652344 89.1875 91.683594 93.457031 94.101562 97.261719 C 95.410156 99.332031 97.15625 100.859375 99.714844 101.085938 C 109.125 101.933594 117.070312 98.84375 122.710938 91.273438 C 129.023438 82.804688 130.410156 73.058594 128.585938 62.800781 C 128.226562 60.777344 127.625 58.796875 127.199219 56.777344 C 126.910156 55.476562 127.425781 54.515625 128.707031 54.0625 C 129.300781 53.863281 129.914062 53.695312 130.507812 53.574219 C 138.207031 51.914062 145.996094 51.367188 153.84375 52.160156 C 162.75 53.050781 171.171875 55.496094 178.707031 60.445312 C 190.503906 68.207031 197.808594 79.25 201.78125 92.609375 C 202.359375 94.546875 202.445312 96.667969 202.5 98.710938 C 202.535156 100.074219 201.660156 100.433594 200.621094 99.578125 C 199.476562 98.640625 198.429688 97.578125 197.445312 96.476562 C 196.527344 95.4375 195.792969 94.25 194.902344 93.160156 C 194.214844 92.304688 193.613281 92.433594 193.28125 93.5 C 193.070312 94.144531 192.886719 94.785156 192.703125 95.429688 C 190.644531 102.78125 187.394531 109.484375 182.128906 115.132812 C 181.398438 115.929688 180.742188 117.109375 180.65625 118.15625 C 180.429688 121.054688 180.261719 124.011719 180.542969 126.902344 C 181.117188 133.109375 182.015625 139.292969 182.714844 145.492188 C 183.109375 148.992188 181.984375 151.050781 178.691406 152.265625 C 176.378906 153.113281 173.898438 153.734375 171.453125 153.90625 C 167.558594 154.175781 163.632812 153.984375 159.71875 153.984375 C 159.613281 149.621094 159.992188 145.332031 155.886719 142.992188 C 156.679688 139.753906 157.597656 136.679688 158.148438 133.539062 C 158.601562 130.929688 158.21875 128.363281 156.382812 126.222656 C 154.664062 124.207031 152.507812 123.65625 150.535156 124.808594 C 144.589844 128.273438 138.40625 128.292969 132.113281 126.023438 C 129.222656 124.972656 127.207031 125.566406 125.609375 128.203125 C 123.890625 131.042969 123.164062 134.226562 123.355469 137.449219 C 123.601562 141.507812 124.308594 145.527344 124.847656 149.566406 C 125.144531 151.828125 124.894531 152.414062 122.648438 152.988281 C 117.664062 154.257812 112.589844 154.394531 107.492188 153.984375 C 107.222656 153.960938 106.953125 153.847656 106.777344 153.800781 C 106.523438 149.566406 106.96875 145.167969 101.921875 142.914062 C 104.15625 138.175781 103.851562 133.257812 103.085938 128.34375 Z M 72.929688 111.683594 C 73.671875 110.988281 74.265625 109.894531 74.472656 108.890625 C 74.996094 106.378906 73.113281 103.007812 70.929688 102.074219 C 69.769531 101.566406 68.753906 101.75 67.933594 102.675781 C 65.933594 104.9375 63.960938 107.222656 61.996094 109.519531 C 61.664062 109.914062 61.367188 110.375 61.132812 110.839844 C 60.347656 112.347656 60.808594 113.449219 62.488281 113.859375 C 63.5 114.113281 64.546875 114.164062 65.585938 114.3125 C 68.292969 114.050781 70.910156 113.597656 72.929688 111.695312 Z M 73.15625 86.550781 C 73.148438 84.75 71.644531 83.25 69.871094 83.242188 C 68.046875 83.234375 66.476562 84.863281 66.539062 86.664062 C 66.617188 88.472656 68.117188 89.921875 69.917969 89.886719 C 71.734375 89.859375 73.183594 88.375 73.164062 86.558594 Z M 73.15625 86.550781 "/>
</g>
</svg>
